<?xml version="1.0" encoding="UTF-8"?>
<!DOCTYPE svg PUBLIC "-//W3C//DTD SVG 1.1//EN" "http://www.w3.org/Graphics/SVG/1.1/DTD/svg11.dtd">
<!-- Creator: CorelDRAW -->
<svg xmlns="http://www.w3.org/2000/svg" xml:space="preserve" width="85mm" height="80mm" style="shape-rendering:geometricPrecision; text-rendering:geometricPrecision; image-rendering:optimizeQuality; fill-rule:evenodd; clip-rule:evenodd"
viewBox="0 0 85 80"
 xmlns:xlink="http://www.w3.org/1999/xlink">
 <defs>
  <style type="text/css">
   <![CDATA[
    .str3 {stroke:#1F1A17;stroke-width:0.1763}
    .str0 {stroke:#667AB3;stroke-width:0.1763}
    .str1 {stroke:#1F1A17;stroke-width:0.2117}
    .str2 {stroke:#007CC3;stroke-width:0.3528}
    .fil1 {fill:none}
    .fil8 {fill:#1F1A17}
    .fil3 {fill:#667AB3}
    .fil4 {fill:white}
    .fil5 {fill:#00923F;fill-rule:nonzero}
    .fil0 {fill:#0093DD;fill-rule:nonzero}
    .fil2 {fill:#1F1A17;fill-rule:nonzero}
    .fil7 {fill:#DA251D;fill-rule:nonzero}
    .fil6 {fill:#E77817;fill-rule:nonzero}
   ]]>
  </style>
 </defs>
 <g id="Warstwa_x0020_1">
  <metadata id="CorelCorpID_0Corel-Layer"/>
  <g id="_42442544">
   <g>
    <path id="_41825304" class="fil0" d="M21.8542 64.2842l-2.7064 -0.0972 0 0 0.0576 -0.0465 0.0558 -0.0474 0.0539 -0.0483 0.052 -0.0492 0.0501 -0.0501 0.0482 -0.051 0.0464 -0.0518 0.0445 -0.0528 0.0425 -0.0536 0.0407 -0.0545 0.0388 -0.0554 0.037 -0.0563 0.035 -0.0572 0.0332 -0.0581 0.0313 -0.059 0.0293 -0.0598 0.0275 -0.0608 0.0257 -0.0616 0.0237 -0.0626 0.0219 -0.0634 0.0199 -0.0643 0.0181 -0.0652 0.0162 -0.066 0.0143 -0.067 0.0124 -0.0679 0.0106 -0.0687 0.0087 -0.0696 0.0067 -0.0706 0.0049 -0.0714 0.003 -0.0723 0.0012 -0.0732 -0.0008 -0.0741 1.7961 2.0269zm-2.9428 -0.7741l0 -0.3528 0 0 0.0598 0.0011 0.0604 0.0013 0.0598 0.002 0.0603 0.0029 0.0604 0.0038 0.0597 0.0045 0.0602 0.0061 0.0603 0.0062 0.0595 0.0077 0.06 0.0078 0.0594 0.0094 0.0599 0.0094 0.06 0.0109 0.0591 0.0118 0.0597 0.0119 0.059 0.0134 0.0588 0.0142 0.0595 0.015 0.0586 0.0158 0.0592 0.0166 0.0584 0.0174 0.0583 0.0182 0.0588 0.0189 0.0581 0.0198 0.0578 0.0206 0.0578 0.0213 0.0576 0.0222 0.0574 0.0236 0.0572 0.0237 0.0579 0.0245 0.0568 0.0259 0.0568 0.0261 -0.1502 0.3184 -0.0526 -0.0247 -0.0528 -0.0233 -0.0523 -0.0231 -0.0532 -0.0223 -0.0532 -0.0208 -0.0534 -0.0208 -0.0536 -0.0199 -0.0538 -0.0192 -0.0539 -0.0184 -0.0534 -0.0177 -0.0541 -0.0168 -0.0542 -0.016 -0.0538 -0.0152 -0.0544 -0.0144 -0.0539 -0.0136 -0.0548 -0.0128 -0.0548 -0.012 -0.0543 -0.0119 -0.0549 -0.0104 -0.0544 -0.0097 -0.0545 -0.0094 -0.0552 -0.008 -0.0546 -0.0078 -0.0553 -0.0063 -0.0547 -0.0062 -0.0548 -0.0047 -0.0555 -0.0045 -0.0548 -0.0038 -0.0549 -0.0029 -0.0556 -0.002 -0.055 -0.0013 -0.0556 0.0003 0 0zm-5.4085 7.5306l-0.3514 0 -0.0007 0 0.008 -0.4027 0.0215 -0.3976 0.0363 -0.3925 0.0498 -0.3857 0.0636 -0.379 0.0767 -0.3726 0.0892 -0.3643 0.1021 -0.3569 0.1139 -0.3476 0.1254 -0.3385 0.1373 -0.3296 0.1486 -0.3189 0.1585 -0.3084 0.1699 -0.2981 0.1797 -0.2858 0.1891 -0.2746 0.1987 -0.2614 0.2082 -0.2485 0.2171 -0.2357 0.2252 -0.2211 0.2334 -0.2067 0.2415 -0.1911 0.249 -0.1764 0.2556 -0.1598 0.2633 -0.1429 0.2697 -0.1259 0.2753 -0.1081 0.2813 -0.0895 0.2866 -0.0706 0.2911 -0.051 0.296 -0.0312 0.299 -0.0107 0 0.3528 -0.2756 0.0093 -0.2712 0.0284 -0.2677 0.047 -0.2632 0.065 -0.2591 0.0827 -0.2547 0.0997 -0.2491 0.1163 -0.2439 0.1333 -0.239 0.1488 -0.2326 0.164 -0.2263 0.1801 -0.2196 0.1943 -0.2128 0.2087 -0.2047 0.2219 -0.1972 0.2361 -0.1891 0.249 -0.1807 0.2608 -0.1715 0.2734 -0.1617 0.2843 -0.1529 0.296 -0.1418 0.3065 -0.1317 0.3158 -0.1212 0.3261 -0.1099 0.3352 -0.0979 0.3431 -0.0864 0.3519 -0.0739 0.3588 -0.061 0.3666 -0.0484 0.3733 -0.0349 0.3787 -0.0215 0.3852 -0.0066 0.3903 -0.0007 0zm5.4085 7.5307l0 0.3528 0 0 -0.299 -0.0107 -0.296 -0.0312 -0.2911 -0.051 -0.2866 -0.0706 -0.2813 -0.0895 -0.2753 -0.1081 -0.2697 -0.1259 -0.2633 -0.1429 -0.2556 -0.1598 -0.249 -0.1764 -0.2415 -0.1911 -0.2334 -0.2067 -0.2252 -0.2211 -0.2171 -0.2358 -0.2082 -0.2484 -0.1987 -0.2614 -0.1891 -0.2746 -0.1797 -0.2859 -0.1699 -0.298 -0.1585 -0.3084 -0.1486 -0.3189 -0.1373 -0.3297 -0.1254 -0.3385 -0.1139 -0.3475 -0.1021 -0.3569 -0.0892 -0.3643 -0.0767 -0.3726 -0.0636 -0.3791 -0.0498 -0.3856 -0.0363 -0.3926 -0.0215 -0.3976 -0.0073 -0.4027 0.3514 0 0.0073 0.3903 0.0215 0.3852 0.0349 0.3788 0.0484 0.3732 0.061 0.3667 0.0739 0.3588 0.0864 0.3519 0.0979 0.3431 0.1099 0.3351 0.1212 0.3261 0.1317 0.3159 0.1418 0.3065 0.1529 0.296 0.1617 0.2842 0.1715 0.2735 0.1807 0.2608 0.1891 0.249 0.1972 0.236 0.2047 0.222 0.2128 0.2087 0.2196 0.1943 0.2263 0.1801 0.2326 0.164 0.239 0.1488 0.2439 0.1333 0.2491 0.1163 0.2547 0.0997 0.2591 0.0827 0.2632 0.065 0.2677 0.047 0.2712 0.0284 0.2756 0.0093 0 0zm2.4225 -0.7994l0.2012 0.288 -0.0763 0.0525 -0.076 0.0503 -0.0772 0.0493 -0.0776 0.0472 -0.0781 0.0457 -0.0785 0.0448 -0.079 0.0425 -0.0794 0.041 -0.0796 0.0395 -0.0802 0.0379 -0.0811 0.0362 -0.0808 0.0347 -0.0818 0.0332 -0.0815 0.0309 -0.0824 0.03 -0.082 0.0283 -0.083 0.0261 -0.0833 0.0252 -0.0835 0.0229 -0.0831 0.0212 -0.084 0.0197 -0.0842 0.018 -0.0843 0.0164 -0.0846 0.0147 -0.0848 0.0131 -0.0848 0.0115 -0.0858 0.0092 -0.0851 0.0081 -0.0854 0.0059 -0.0853 0.0042 -0.0855 0.0025 -0.0855 0.0015 0 -0.3528 0.0787 -0.0001 0.0785 -0.0025 0.0785 -0.0042 0.0784 -0.0059 0.0783 -0.0067 0.0774 -0.0092 0.078 -0.0101 0.0778 -0.0117 0.0778 -0.0135 0.0775 -0.015 0.0772 -0.0166 0.0772 -0.0183 0.0775 -0.0198 0.0767 -0.0215 0.0763 -0.0224 0.0762 -0.0247 0.0764 -0.0257 0.0756 -0.0272 0.0759 -0.0295 0.075 -0.0304 0.0752 -0.0319 0.0743 -0.0336 0.0746 -0.0351 0.0742 -0.0367 0.0738 -0.0382 0.0734 -0.0399 0.0731 -0.0406 0.0725 -0.0429 0.0722 -0.0444 0.0716 -0.0453 0.072 -0.0475 0.0707 -0.0483z"/>
   </g>
   <g>
    <path class="fil0" d="M70.8848 34.5801l-2.7064 -0.0972 0 0 0.0576 -0.0465 0.0558 -0.0474 0.0539 -0.0483 0.052 -0.0492 0.0501 -0.0501 0.0482 -0.051 0.0464 -0.0518 0.0445 -0.0528 0.0425 -0.0536 0.0407 -0.0545 0.0388 -0.0554 0.037 -0.0563 0.035 -0.0572 0.0332 -0.0581 0.0313 -0.059 0.0293 -0.0598 0.0275 -0.0608 0.0257 -0.0616 0.0237 -0.0626 0.0219 -0.0634 0.0199 -0.0643 0.0181 -0.0652 0.0162 -0.066 0.0143 -0.067 0.0124 -0.0679 0.0106 -0.0687 0.0087 -0.0696 0.0067 -0.0706 0.0049 -0.0714 0.003 -0.0723 0.0012 -0.0732 -0.0008 -0.0741 1.7961 2.0269zm-2.9428 -0.7741l0 -0.3528 0 0 0.0598 0.0011 0.0604 0.0013 0.0598 0.002 0.0603 0.0029 0.0604 0.0038 0.0597 0.0045 0.0602 0.0061 0.0603 0.0062 0.0595 0.0077 0.06 0.0078 0.0594 0.0094 0.0599 0.0094 0.06 0.0109 0.0591 0.0118 0.0597 0.0119 0.059 0.0134 0.0588 0.0142 0.0595 0.015 0.0586 0.0158 0.0592 0.0166 0.0584 0.0174 0.0583 0.0182 0.0588 0.0189 0.0581 0.0198 0.0578 0.0206 0.0578 0.0213 0.0576 0.0222 0.0574 0.0236 0.0572 0.0237 0.0579 0.0245 0.0568 0.0259 0.0568 0.0261 -0.1502 0.3184 -0.0526 -0.0247 -0.0528 -0.0233 -0.0523 -0.0231 -0.0532 -0.0223 -0.0532 -0.0208 -0.0534 -0.0208 -0.0536 -0.0199 -0.0538 -0.0192 -0.0539 -0.0184 -0.0534 -0.0177 -0.0541 -0.0168 -0.0542 -0.016 -0.0538 -0.0152 -0.0544 -0.0144 -0.0539 -0.0136 -0.0548 -0.0128 -0.0548 -0.012 -0.0543 -0.0119 -0.0549 -0.0104 -0.0544 -0.0097 -0.0545 -0.0094 -0.0552 -0.008 -0.0546 -0.0078 -0.0553 -0.0063 -0.0547 -0.0062 -0.0548 -0.0047 -0.0555 -0.0045 -0.0548 -0.0038 -0.0549 -0.0029 -0.0556 -0.002 -0.055 -0.0013 -0.0556 0.0003 0 0zm-5.4085 7.5306l-0.3514 0 -0.0007 0 0.008 -0.4027 0.0215 -0.3976 0.0363 -0.3925 0.0498 -0.3857 0.0636 -0.379 0.0767 -0.3726 0.0892 -0.3643 0.1021 -0.3569 0.1139 -0.3476 0.1254 -0.3385 0.1373 -0.3296 0.1486 -0.3189 0.1585 -0.3084 0.1699 -0.2981 0.1797 -0.2858 0.1891 -0.2746 0.1987 -0.2614 0.2082 -0.2485 0.2171 -0.2357 0.2252 -0.2211 0.2334 -0.2067 0.2415 -0.1911 0.249 -0.1764 0.2556 -0.1598 0.2633 -0.1429 0.2697 -0.1259 0.2753 -0.1081 0.2813 -0.0895 0.2866 -0.0706 0.2911 -0.051 0.296 -0.0312 0.299 -0.0107 0 0.3528 -0.2756 0.0093 -0.2712 0.0284 -0.2677 0.047 -0.2632 0.065 -0.2591 0.0827 -0.2547 0.0997 -0.2491 0.1163 -0.2439 0.1333 -0.239 0.1488 -0.2326 0.164 -0.2263 0.1801 -0.2196 0.1943 -0.2128 0.2087 -0.2047 0.2219 -0.1972 0.2361 -0.1891 0.249 -0.1807 0.2608 -0.1715 0.2734 -0.1617 0.2843 -0.1529 0.296 -0.1418 0.3065 -0.1317 0.3158 -0.1212 0.3261 -0.1099 0.3352 -0.0979 0.3431 -0.0864 0.3519 -0.0739 0.3588 -0.061 0.3666 -0.0484 0.3733 -0.0349 0.3787 -0.0215 0.3852 -0.0066 0.3903 -0.0007 0zm5.4085 7.5307l0 0.3528 0 0 -0.299 -0.0107 -0.296 -0.0312 -0.2911 -0.051 -0.2866 -0.0706 -0.2813 -0.0895 -0.2753 -0.1081 -0.2697 -0.1259 -0.2633 -0.1429 -0.2556 -0.1598 -0.249 -0.1764 -0.2415 -0.1911 -0.2334 -0.2067 -0.2252 -0.2211 -0.2171 -0.2358 -0.2082 -0.2484 -0.1987 -0.2614 -0.1891 -0.2746 -0.1797 -0.2859 -0.1699 -0.298 -0.1585 -0.3084 -0.1486 -0.3189 -0.1373 -0.3297 -0.1254 -0.3385 -0.1139 -0.3475 -0.1021 -0.3569 -0.0892 -0.3643 -0.0767 -0.3726 -0.0636 -0.3791 -0.0498 -0.3856 -0.0363 -0.3926 -0.0215 -0.3976 -0.0073 -0.4027 0.3514 0 0.0073 0.3903 0.0215 0.3852 0.0349 0.3788 0.0484 0.3732 0.061 0.3667 0.0739 0.3588 0.0864 0.3519 0.0979 0.3431 0.1099 0.3351 0.1212 0.3261 0.1317 0.3159 0.1418 0.3065 0.1529 0.296 0.1617 0.2842 0.1715 0.2735 0.1807 0.2608 0.1891 0.249 0.1972 0.236 0.2047 0.222 0.2128 0.2087 0.2196 0.1943 0.2263 0.1801 0.2326 0.164 0.239 0.1488 0.2439 0.1333 0.2491 0.1163 0.2547 0.0997 0.2591 0.0827 0.2632 0.065 0.2677 0.047 0.2712 0.0284 0.2756 0.0093 0 0zm2.4225 -0.7994l0.2012 0.288 -0.0763 0.0525 -0.076 0.0503 -0.0772 0.0493 -0.0776 0.0472 -0.0781 0.0457 -0.0785 0.0448 -0.079 0.0425 -0.0794 0.041 -0.0796 0.0395 -0.0802 0.0379 -0.0811 0.0362 -0.0808 0.0347 -0.0818 0.0332 -0.0815 0.0309 -0.0824 0.03 -0.082 0.0283 -0.083 0.0261 -0.0833 0.0252 -0.0835 0.0229 -0.0831 0.0212 -0.084 0.0197 -0.0842 0.018 -0.0843 0.0164 -0.0846 0.0147 -0.0848 0.0131 -0.0848 0.0115 -0.0858 0.0092 -0.0851 0.0081 -0.0854 0.0059 -0.0853 0.0042 -0.0855 0.0025 -0.0855 0.0015 0 -0.3528 0.0787 -0.0001 0.0785 -0.0025 0.0785 -0.0042 0.0784 -0.0059 0.0783 -0.0067 0.0774 -0.0092 0.078 -0.0101 0.0778 -0.0117 0.0778 -0.0135 0.0775 -0.015 0.0772 -0.0166 0.0772 -0.0183 0.0775 -0.0198 0.0767 -0.0215 0.0763 -0.0224 0.0762 -0.0247 0.0764 -0.0257 0.0756 -0.0272 0.0759 -0.0295 0.075 -0.0304 0.0752 -0.0319 0.0743 -0.0336 0.0746 -0.0351 0.0742 -0.0367 0.0738 -0.0382 0.0734 -0.0399 0.0731 -0.0406 0.0725 -0.0429 0.0722 -0.0444 0.0716 -0.0453 0.072 -0.0475 0.0707 -0.0483z"/>
   </g>
   <path class="fil1" d="M0.2123 78.7992c30.0031,-9.6851 62.5529,-32.8058 76.5409,-59.2065"/>
   <path class="fil2" d="M-0.3719 78.3141c15.454,-4.9886 31.5902,-13.5616 45.4943,-24.3168 12.9414,-10.0106 33.286,-14.1519 39.9846,-26.7948l0.4838 0.402c-6.7967,12.828 -26.5164,17.379 -39.6086,27.5062 -14.0301,10.8526 -30.3188,19.5054 -45.9241,24.5428l-0.43 -1.3394z"/>
   <polygon class="fil3 str0" points="44.222,54.6884 45.7337,53.5224 46.6003,54.6299 44.9217,55.9236 "/>
   <path class="fil2" d="M32.0486 75.6112l-0.0311 0.1016 -1.5371 0 0.0386 -0.1016c0.1542,-0.0038 0.2558,-0.0169 0.3057,-0.0386 0.0809,-0.032 0.1402,-0.0752 0.1787,-0.1298 0.0612,-0.0865 0.1233,-0.2408 0.1872,-0.4628l0.651 -2.255c0.0546,-0.1872 0.0828,-0.3283 0.0828,-0.4242 0,-0.048 -0.0122,-0.0885 -0.0357,-0.1214 -0.0245,-0.0329 -0.0602,-0.0583 -0.1092,-0.0753 -0.0489,-0.0178 -0.1439,-0.0263 -0.285,-0.0263l0.0329 -0.1025 1.444 0 -0.0301 0.1025c-0.1176,-0.0019 -0.205,0.0104 -0.2624,0.0386 -0.0819,0.0367 -0.1449,0.0884 -0.1882,0.1571 -0.0432,0.0677 -0.0987,0.2182 -0.1674,0.4515l-0.6472 2.255c-0.0593,0.2069 -0.0885,0.3396 -0.0885,0.397 0,0.0451 0.0113,0.0846 0.0348,0.1166 0.0226,0.032 0.0593,0.0574 0.1101,0.0743 0.0508,0.0179 0.1562,0.032 0.3161,0.0433z"/>
   <path class="fil2" d="M56.8965 39.0851l-0.9482 3.2521c-0.0508,0.1769 -0.0772,0.2926 -0.0772,0.3472 0,0.0188 0.0085,0.0357 0.0235,0.0526 0.016,0.016 0.032,0.0245 0.048,0.0245 0.0245,0 0.0527,-0.0122 0.0856,-0.0358 0.0631,-0.0442 0.1675,-0.1542 0.3142,-0.3302l0.0941 0.0574c-0.1326,0.1835 -0.2662,0.333 -0.4008,0.4469 -0.1354,0.1138 -0.2615,0.1703 -0.3791,0.1703 -0.063,0 -0.1138,-0.0217 -0.1542,-0.0659 -0.0405,-0.0442 -0.0612,-0.1063 -0.0612,-0.1872 0,-0.1054 0.0282,-0.2455 0.0828,-0.4215l0.1072 -0.3424c-0.2662,0.4121 -0.5089,0.6962 -0.7272,0.8542 -0.1505,0.1091 -0.2953,0.1628 -0.4327,0.1628 -0.1392,0 -0.2615,-0.0621 -0.365,-0.1854 -0.1044,-0.1241 -0.1562,-0.2925 -0.1562,-0.5061 0,-0.2737 0.0875,-0.5663 0.2625,-0.8768 0.174,-0.3104 0.4045,-0.5625 0.6914,-0.7572 0.2258,-0.1562 0.4337,-0.2343 0.6228,-0.2343 0.0997,0 0.1844,0.0198 0.2568,0.0602 0.0715,0.0405 0.1421,0.1073 0.2117,0.2013l0.27 -0.9595c0.0207,-0.0677 0.0367,-0.1214 0.0498,-0.1618 0.0217,-0.0743 0.033,-0.1345 0.033,-0.1825 0,-0.0386 -0.0141,-0.0706 -0.0414,-0.096 -0.0386,-0.032 -0.0884,-0.047 -0.1487,-0.047 -0.0423,0 -0.1119,0.0066 -0.2097,0.0188l0 -0.1016 0.9482 -0.1571zm-1.0226 1.9567c0,-0.1176 -0.0338,-0.2126 -0.1016,-0.2841 -0.0677,-0.0715 -0.1542,-0.1072 -0.2596,-0.1072 -0.2314,0 -0.4722,0.191 -0.7234,0.5729 -0.2503,0.3829 -0.3763,0.7479 -0.3763,1.0969 0,0.1383 0.031,0.2436 0.0912,0.3161 0.0612,0.0724 0.1336,0.1091 0.2183,0.1091 0.191,0 0.4308,-0.207 0.7187,-0.6209 0.2888,-0.413 0.4327,-0.7742 0.4327,-1.0828z"/>
   <path id="1" class="fil2" d="M58.3434 39.0851l-0.9426 3.2794c-0.0461,0.1637 -0.0687,0.2643 -0.0687,0.301 0,0.0273 0.0084,0.0499 0.0263,0.0687 0.017,0.0179 0.0386,0.0273 0.0649,0.0273 0.0348,0 0.0725,-0.0151 0.1129,-0.047 0.095,-0.0753 0.1957,-0.192 0.3001,-0.35l0.0828 0.0856c-0.175,0.2465 -0.3349,0.4177 -0.4826,0.5155 -0.1082,0.0696 -0.2107,0.1045 -0.3086,0.1045 -0.0696,0 -0.1279,-0.0236 -0.1749,-0.0715 -0.0471,-0.048 -0.0706,-0.1026 -0.0706,-0.1656 0,-0.0659 0.0301,-0.2013 0.0884,-0.4074l0.747 -2.5851c0.0611,-0.2117 0.0912,-0.333 0.0912,-0.3641 0,-0.0442 -0.0178,-0.0799 -0.0526,-0.1091 -0.0349,-0.0282 -0.0894,-0.0423 -0.1628,-0.0423 -0.0423,0 -0.1063,0.0066 -0.1928,0.0188l0 -0.1016 0.9426 -0.1571z"/>
   <circle class="fil4 str1" cx="14.9405" cy="26.3438" r="0.4632"/>
   <path class="fil2" d="M9.8024 26.9324l-1.4468 0 -0.2531 0.5899c-0.063,0.1448 -0.0941,0.253 -0.0941,0.3255 0,0.0564 0.0273,0.1063 0.0809,0.1495 0.0546,0.0433 0.1713,0.0715 0.3519,0.0847l0 0.1016 -1.1769 0 0 -0.1016c0.1562,-0.0282 0.2568,-0.064 0.3029,-0.1082 0.0941,-0.0875 0.1976,-0.2672 0.3114,-0.5371l1.3152 -3.0753 0.0959 0 1.301 3.1082c0.1045,0.2502 0.1995,0.412 0.2851,0.4863 0.0856,0.0744 0.2051,0.1167 0.3575,0.1261l0 0.1016 -1.4751 0 0 -0.1016c0.1486,-0.0075 0.2493,-0.0329 0.302,-0.0753 0.0527,-0.0414 0.079,-0.0931 0.079,-0.1542 0,-0.0809 -0.0376,-0.2079 -0.111,-0.3829l-0.2258 -0.5372zm-0.0771 -0.2041l-0.6341 -1.5099 -0.65 1.5099 1.2841 0z"/>
   <g>
    <path class="fil5" d="M16.4152 27.3458l28.0507 27.0891 -0.4878 0.507 -28.0507 -27.0891 0.4878 -0.507zm-1.225 -0.6939l3.2995 1.5386 -0.0836 0.0223 -0.0815 0.0242 -0.0794 0.0263 -0.0774 0.0283 -0.0753 0.0302 -0.0732 0.0323 -0.0712 0.0343 -0.0691 0.0363 -0.067 0.0382 -0.0649 0.0403 -0.0629 0.0423 -0.0608 0.0443 -0.0587 0.0463 -0.0566 0.0483 -0.0546 0.0502 -0.0525 0.0523 -0.0504 0.0543 -0.0484 0.0563 -0.0462 0.0583 -0.0442 0.0603 -0.0422 0.0623 -0.04 0.0643 -0.038 0.0663 -0.0359 0.0683 -0.0339 0.0703 -0.0318 0.0723 -0.0297 0.0743 -0.0276 0.0763 -0.0255 0.0783 -0.0235 0.0803 -0.0214 0.0823 -0.0194 0.0843 0 0 -1.6527 -3.2438z"/>
   </g>
   <g>
    <path class="fil6" d="M57.2885 45.5452l-12.8584 9.4271 -0.4162 -0.5678 12.8584 -9.4271 0.4162 0.5678zm0.8924 -1.0908l-2.0764 2.9929 -0.0078 -0.0862 -0.0101 -0.0845 -0.0125 -0.0828 -0.0147 -0.0811 -0.0171 -0.0793 -0.0194 -0.0777 -0.0218 -0.076 -0.024 -0.0743 -0.0264 -0.0725 -0.0287 -0.0709 -0.0311 -0.0691 -0.0334 -0.0675 -0.0356 -0.0657 -0.0381 -0.0641 -0.0403 -0.0623 -0.0427 -0.0606 -0.0449 -0.059 -0.0474 -0.0572 -0.0496 -0.0555 -0.052 -0.0538 -0.0543 -0.0521 -0.0566 -0.0504 -0.0589 -0.0487 -0.0613 -0.047 -0.0636 -0.0453 -0.0659 -0.0436 -0.0682 -0.0419 -0.0706 -0.0401 -0.0729 -0.0385 -0.0752 -0.0368 -0.0775 -0.035 -0.0799 -0.0334 0 0 3.4789 -1.08z"/>
   </g>
   <g>
    <path class="fil2" d="M57.9337 38.0047l-2.7865 0 0 -0.1764 2.7865 0 0 0.1764zm0.7221 -0.0882l-1.0504 0.4595 0.0136 -0.0287 0.0128 -0.0287 0.0119 -0.0287 0.011 -0.0287 0.0101 -0.0288 0.0092 -0.0287 0.0083 -0.0287 0.0075 -0.0287 0.0066 -0.0287 0.0057 -0.0288 0.0049 -0.0287 0.0039 -0.0287 0.0031 -0.0287 0.0022 -0.0288 0.0013 -0.0287 0.0005 -0.0287 -0.0005 -0.0287 -0.0013 -0.0287 -0.0022 -0.0288 -0.0031 -0.0287 -0.0039 -0.0287 -0.0049 -0.0287 -0.0057 -0.0288 -0.0066 -0.0287 -0.0075 -0.0287 -0.0083 -0.0287 -0.0092 -0.0287 -0.0101 -0.0288 -0.011 -0.0287 -0.0119 -0.0287 -0.0128 -0.0287 -0.0136 -0.0287 0 0 1.0504 0.4595z"/>
   </g>
   <path class="fil2" d="M24.2331 42.4984l0.9511 -0.1543 -0.397 1.3387c0.3218,-0.5494 0.6143,-0.9332 0.8768,-1.1515 0.1486,-0.1251 0.27,-0.1872 0.3641,-0.1872 0.0602,0 0.1082,0.0179 0.143,0.0536 0.0348,0.0358 0.0526,0.0875 0.0526,0.1553 0,0.1213 -0.031,0.237 -0.094,0.3471 -0.0442,0.0828 -0.1073,0.1242 -0.1901,0.1242 -0.0423,0 -0.079,-0.0132 -0.1091,-0.0414 -0.0301,-0.0273 -0.0489,-0.0696 -0.0564,-0.1261 -0.0038,-0.0357 -0.0123,-0.0583 -0.0245,-0.0696 -0.015,-0.0141 -0.032,-0.0216 -0.0527,-0.0216 -0.031,0 -0.0602,0.0075 -0.0884,0.0216 -0.047,0.0263 -0.1204,0.0978 -0.2173,0.2154 -0.1524,0.1797 -0.318,0.413 -0.4958,0.6999 -0.0771,0.1214 -0.1439,0.2578 -0.1985,0.4102 -0.0771,0.2098 -0.1213,0.3358 -0.1326,0.3782l-0.0884 0.3471 -0.4215 0 0.5099 -1.7112c0.0593,-0.1985 0.0884,-0.3405 0.0884,-0.4252 0,-0.0329 -0.0141,-0.0602 -0.0414,-0.0818 -0.0367,-0.0302 -0.0856,-0.0443 -0.1458,-0.0443 -0.0386,0 -0.1101,0.0085 -0.2126,0.0245l-0.0198 -0.1016z"/>
   <g>
    <path class="fil2" d="M26.5055 41.1085l-2.7865 0 0 -0.1764 2.7865 0 0 0.1764zm0.7221 -0.0882l-1.0504 0.4595 0.0136 -0.0287 0.0128 -0.0287 0.0119 -0.0287 0.011 -0.0287 0.0101 -0.0288 0.0092 -0.0287 0.0083 -0.0287 0.0075 -0.0287 0.0066 -0.0287 0.0057 -0.0288 0.0049 -0.0287 0.0039 -0.0287 0.0031 -0.0287 0.0022 -0.0288 0.0013 -0.0287 0.0005 -0.0287 -0.0005 -0.0287 -0.0013 -0.0287 -0.0022 -0.0288 -0.0031 -0.0287 -0.0039 -0.0287 -0.0049 -0.0287 -0.0057 -0.0288 -0.0066 -0.0287 -0.0075 -0.0287 -0.0083 -0.0287 -0.0092 -0.0287 -0.0101 -0.0288 -0.011 -0.0287 -0.0119 -0.0287 -0.0128 -0.0287 -0.0136 -0.0287 0 0 1.0504 0.4595z"/>
   </g>
   <path class="fil1 str1" d="M38.014 48.1668c1.6769,-1.7371 3.9931,-2.7204 6.4088,-2.7204 2.8376,0 5.5083,1.3531 7.1854,3.6417"/>
   <path class="fil2" d="M45.3241 49.2369l0.4572 0 -0.3575 1.254c-0.0244,0.079 -0.0621,0.2032 -0.1138,0.3725 0.0706,0.2832 0.1223,0.4516 0.1571,0.5071 0.0668,0.1006 0.1505,0.1514 0.2512,0.1514 0.0734,0 0.1411,-0.0301 0.2041,-0.0912 0.0621,-0.0602 0.1035,-0.1553 0.1242,-0.2832l0.1101 0c-0.0254,0.2643 -0.0819,0.4468 -0.1665,0.5484 -0.0857,0.1007 -0.1844,0.1515 -0.2964,0.1515 -0.1053,0 -0.2004,-0.0442 -0.286,-0.1326 -0.0846,-0.0885 -0.1618,-0.2776 -0.2295,-0.5673 -0.0809,0.1599 -0.1599,0.2813 -0.2371,0.3631 -0.1081,0.1139 -0.2257,0.1995 -0.3527,0.255 -0.127,0.0564 -0.271,0.0846 -0.4328,0.0846 -0.4064,0 -0.7046,-0.1354 -0.8956,-0.4054 -0.1909,-0.27 -0.2869,-0.5776 -0.2869,-0.9229 0,-0.4045 0.112,-0.7319 0.3368,-0.9831 0.2239,-0.2502 0.4864,-0.3762 0.7874,-0.3762 0.2098,0 0.3942,0.0639 0.5541,0.1919 0.1599,0.1279 0.3048,0.365 0.4355,0.7121l0.2371 -0.8297zm-0.333 1.1383c-0.0997,-0.3782 -0.2277,-0.6426 -0.3838,-0.7921 -0.1562,-0.1496 -0.3152,-0.2249 -0.476,-0.2249 -0.1807,0 -0.3302,0.0988 -0.4497,0.2964 -0.1195,0.1975 -0.1787,0.5127 -0.1787,0.9445 0,0.2549 0.0254,0.4562 0.0771,0.602 0.0508,0.1458 0.1289,0.2587 0.2324,0.3387 0.1044,0.0799 0.2135,0.1204 0.3292,0.1204 0.1421,0 0.2709,-0.0659 0.3885,-0.1957 0.16,-0.1768 0.3133,-0.54 0.461,-1.0893z"/>
   <path class="fil1 str2" d="M66.1517 48.6363c0.576,0.2691 1.1814,0.4074 1.7903,0.4074 3.0834,0 5.5841,-3.4513 5.5841,-7.7071 0,-4.2557 -2.5007,-7.707 -5.5841,-7.707 -0.4473,0 -0.8932,0.0753 -1.3273,0.2211"/>
   <path class="fil2" d="M72.6521 47.6016l0.0385 -0.1025 1.334 0c0.2239,0 0.4233,0.0348 0.5992,0.1053 0.175,0.0696 0.3067,0.1665 0.3942,0.2917 0.0875,0.1251 0.1308,0.2577 0.1308,0.3969 0,0.2155 -0.0781,0.4093 -0.2333,0.5833 -0.1552,0.1731 -0.4083,0.302 -0.7592,0.3838 0.2267,0.0847 0.3923,0.1966 0.4995,0.3368 0.1063,0.1392 0.16,0.2926 0.16,0.46 0,0.1853 -0.048,0.3631 -0.144,0.5325 -0.095,0.1684 -0.2182,0.3001 -0.3678,0.3932 -0.1496,0.0941 -0.3302,0.1627 -0.5419,0.207 -0.1505,0.031 -0.3857,0.047 -0.7055,0.047l-1.3697 0 0.0357 -0.1016c0.144,-0.0038 0.2409,-0.0179 0.2926,-0.0414 0.0734,-0.032 0.1261,-0.0734 0.1571,-0.1242 0.0442,-0.0696 0.1025,-0.2295 0.1759,-0.4797l0.6698 -2.2625c0.0574,-0.191 0.0856,-0.3255 0.0856,-0.4026 0,-0.0678 -0.0254,-0.1214 -0.0752,-0.1609 -0.0508,-0.0395 -0.1468,-0.0593 -0.2888,-0.0593 -0.0311,0 -0.0602,-0.0009 -0.0875,-0.0028zm0.5588 1.5513c0.1194,0.0037 0.206,0.0056 0.2596,0.0056 0.3819,0 0.666,-0.0828 0.8533,-0.2493 0.1862,-0.1665 0.2794,-0.3744 0.2794,-0.6246 0,-0.1891 -0.0574,-0.3368 -0.1713,-0.4422 -0.1138,-0.1053 -0.2954,-0.158 -0.5456,-0.158 -0.0658,0 -0.1505,0.0103 -0.253,0.0329l-0.4224 1.4356zm-0.5428 1.841c0.1985,0.0263 0.3537,0.0386 0.4656,0.0386 0.287,0 0.5409,-0.0866 0.762,-0.2587 0.222,-0.1731 0.3321,-0.4074 0.3321,-0.7028 0,-0.2257 -0.0677,-0.4026 -0.2051,-0.5296 -0.1364,-0.127 -0.3575,-0.19 -0.6623,-0.19 -0.0592,0 -0.1307,0.0028 -0.2154,0.0084l-0.4769 1.6341z"/>
   <path class="fil1 str2" d="M17.1211 78.3404c0.576,0.2691 1.1814,0.4074 1.7903,0.4074 3.0834,0 5.5841,-3.4513 5.5841,-7.7071 0,-4.2557 -2.5007,-7.707 -5.5841,-7.707 -0.4473,0 -0.8932,0.0753 -1.3273,0.2211"/>
   <path class="fil2" d="M19.0225 57.6908l0.0385 -0.1025 1.334 0c0.2239,0 0.4233,0.0348 0.5992,0.1053 0.175,0.0696 0.3067,0.1665 0.3942,0.2917 0.0875,0.1251 0.1308,0.2577 0.1308,0.3969 0,0.2155 -0.0781,0.4093 -0.2333,0.5833 -0.1552,0.1731 -0.4083,0.302 -0.7592,0.3838 0.2267,0.0847 0.3923,0.1966 0.4995,0.3368 0.1063,0.1392 0.16,0.2926 0.16,0.46 0,0.1853 -0.048,0.3631 -0.144,0.5325 -0.095,0.1684 -0.2182,0.3001 -0.3678,0.3932 -0.1496,0.0941 -0.3302,0.1627 -0.5419,0.207 -0.1505,0.031 -0.3857,0.047 -0.7055,0.047l-1.3697 0 0.0357 -0.1016c0.144,-0.0038 0.2409,-0.0179 0.2926,-0.0414 0.0734,-0.032 0.1261,-0.0734 0.1571,-0.1242 0.0442,-0.0696 0.1025,-0.2295 0.1759,-0.4797l0.6698 -2.2625c0.0574,-0.191 0.0856,-0.3255 0.0856,-0.4026 0,-0.0678 -0.0254,-0.1214 -0.0752,-0.1609 -0.0508,-0.0395 -0.1468,-0.0593 -0.2888,-0.0593 -0.0311,0 -0.0602,-0.0009 -0.0875,-0.0028zm0.5588 1.5513c0.1194,0.0037 0.206,0.0056 0.2596,0.0056 0.3819,0 0.666,-0.0828 0.8533,-0.2493 0.1862,-0.1665 0.2794,-0.3744 0.2794,-0.6246 0,-0.1891 -0.0574,-0.3368 -0.1713,-0.4422 -0.1138,-0.1053 -0.2954,-0.158 -0.5456,-0.158 -0.0658,0 -0.1505,0.0103 -0.253,0.0329l-0.4224 1.4356zm-0.5428 1.841c0.1985,0.0263 0.3537,0.0386 0.4656,0.0386 0.287,0 0.5409,-0.0866 0.762,-0.2587 0.222,-0.1731 0.3321,-0.4074 0.3321,-0.7028 0,-0.2257 -0.0677,-0.4026 -0.2051,-0.5296 -0.1364,-0.127 -0.3575,-0.19 -0.6623,-0.19 -0.0592,0 -0.1307,0.0028 -0.2154,0.0084l-0.4769 1.6341z"/>
   <line class="fil1" x1="15.1779" y1="26.1083" x2="24.2961" y2= "7.2323" />
   <path class="fil7" d="M21.7463 11.2973l-6.671 14.6032 0.3539 0.2155 7.2675 -14.3592c0.3469,0.2507 0.6527,0.5809 0.9119,0.9874l0.6451 -5.4241 -3.8479 3.877c0.4798,-0.0503 0.9286,-0.016 1.3405,0.1002z"/>
   <path class="fil1 str3" d="M19.2804 30.833c0.3021,-1.2588 0.4593,-2.6385 0.4593,-4.0351 0,-2.4894 -0.4982,-4.8776 -1.383,-6.6283"/>
   <circle class="fil8 str3" cx="18.1378" cy="25.4483" r="0.3795"/>
   <g>
    <path class="fil2" d="M33.8925 68.3173l0.2012 0.288 -0.4152 0.2884 -0.4169 0.2848 -0.4182 0.28 -0.4196 0.2759 -0.4204 0.272 -0.4227 0.268 -0.4246 0.2643 -0.4264 0.2607 -0.4284 0.2577 -0.4299 0.2535 -0.4329 0.2502 -0.4354 0.2469 -0.4379 0.2438 -0.4405 0.2407 -0.4427 0.2377 -0.4464 0.2348 -0.4494 0.2314 -0.4527 0.2294 -0.4553 0.2268 -0.4593 0.2242 -0.4631 0.222 -0.466 0.2197 -0.4707 0.2168 -0.4739 0.2155 -0.4786 0.2135 -0.483 0.2109 -0.4867 0.2098 -0.4912 0.2082 -0.4965 0.2059 -0.5007 0.2052 -0.5061 0.203 -0.5105 0.2025 -0.1282 -0.328 0.5091 -0.2011 0.5035 -0.203 0.4993 -0.2038 0.4937 -0.2059 0.4898 -0.2068 0.4853 -0.2084 0.4802 -0.2109 0.476 -0.2121 0.4725 -0.2141 0.4679 -0.2168 0.4646 -0.2183 0.4603 -0.2206 0.4567 -0.223 0.4539 -0.2254 0.4499 -0.228 0.4466 -0.2314 0.4436 -0.2334 0.4413 -0.2363 0.4379 -0.2393 0.4351 -0.2424 0.4326 -0.2455 0.4301 -0.2488 0.4285 -0.2523 0.4258 -0.2549 0.4236 -0.2593 0.4218 -0.2629 0.4199 -0.2666 0.419 -0.2706 0.417 -0.2745 0.4154 -0.2786 0.4141 -0.2822 0.4138 -0.287zm0.6651 -0.2514l-1.0813 1.4887 -0.003 -0.0436 -0.0042 -0.0428 -0.0053 -0.0419 -0.0066 -0.0411 -0.0078 -0.0403 -0.0089 -0.0394 -0.0102 -0.0386 -0.0113 -0.0378 -0.0126 -0.0369 -0.0137 -0.0361 -0.0149 -0.0353 -0.0161 -0.0344 -0.0173 -0.0336 -0.0185 -0.0328 -0.0197 -0.0319 -0.0209 -0.0311 -0.0221 -0.0302 -0.0232 -0.0294 -0.0245 -0.0286 -0.0256 -0.0278 -0.0269 -0.0269 -0.028 -0.026 -0.0293 -0.0253 -0.0304 -0.0244 -0.0316 -0.0235 -0.0328 -0.0228 -0.034 -0.0219 -0.0352 -0.021 -0.0364 -0.0203 -0.0376 -0.0193 -0.0387 -0.0186 -0.04 -0.0177 0 0 1.7686 -0.5074z"/>
   </g>
   <path class="fil2" d="M16.3595 11.9286l0.0385 -0.1025 1.334 0c0.2239,0 0.4233,0.0348 0.5992,0.1053 0.175,0.0696 0.3067,0.1665 0.3942,0.2917 0.0875,0.1251 0.1308,0.2577 0.1308,0.3969 0,0.2155 -0.0781,0.4093 -0.2333,0.5833 -0.1552,0.1731 -0.4083,0.302 -0.7592,0.3838 0.2267,0.0847 0.3923,0.1966 0.4995,0.3368 0.1063,0.1392 0.16,0.2926 0.16,0.46 0,0.1853 -0.048,0.3631 -0.144,0.5325 -0.095,0.1684 -0.2182,0.3001 -0.3678,0.3932 -0.1496,0.0941 -0.3302,0.1627 -0.5419,0.207 -0.1505,0.031 -0.3857,0.047 -0.7055,0.047l-1.3697 0 0.0357 -0.1016c0.144,-0.0038 0.2409,-0.0179 0.2926,-0.0414 0.0734,-0.032 0.1261,-0.0734 0.1571,-0.1242 0.0442,-0.0696 0.1025,-0.2295 0.1759,-0.4797l0.6698 -2.2625c0.0574,-0.191 0.0856,-0.3255 0.0856,-0.4026 0,-0.0678 -0.0254,-0.1214 -0.0752,-0.1609 -0.0508,-0.0395 -0.1468,-0.0593 -0.2888,-0.0593 -0.0311,0 -0.0602,-0.0009 -0.0875,-0.0028zm0.5588 1.5513c0.1194,0.0037 0.206,0.0056 0.2596,0.0056 0.3819,0 0.666,-0.0828 0.8533,-0.2493 0.1862,-0.1665 0.2794,-0.3744 0.2794,-0.6246 0,-0.1891 -0.0574,-0.3368 -0.1713,-0.4422 -0.1138,-0.1053 -0.2954,-0.158 -0.5456,-0.158 -0.0658,0 -0.1505,0.0103 -0.253,0.0329l-0.4224 1.4356zm-0.5428 1.841c0.1985,0.0263 0.3537,0.0386 0.4656,0.0386 0.287,0 0.5409,-0.0866 0.762,-0.2587 0.222,-0.1731 0.3321,-0.4074 0.3321,-0.7028 0,-0.2257 -0.0677,-0.4026 -0.2051,-0.5296 -0.1364,-0.127 -0.3575,-0.19 -0.6623,-0.19 -0.0592,0 -0.1307,0.0028 -0.2154,0.0084l-0.4769 1.6341z"/>
   <g>
    <path class="fil2" d="M18.4104 10.7471l-2.7865 0 0 -0.1764 2.7865 0 0 0.1764zm0.7221 -0.0882l-1.0504 0.4595 0.0136 -0.0287 0.0128 -0.0287 0.0119 -0.0287 0.011 -0.0287 0.0101 -0.0288 0.0092 -0.0287 0.0083 -0.0287 0.0075 -0.0287 0.0066 -0.0287 0.0057 -0.0288 0.0049 -0.0287 0.0039 -0.0287 0.0031 -0.0287 0.0022 -0.0288 0.0013 -0.0287 0.0005 -0.0287 -0.0005 -0.0287 -0.0013 -0.0287 -0.0022 -0.0288 -0.0031 -0.0287 -0.0039 -0.0287 -0.0049 -0.0287 -0.0057 -0.0288 -0.0066 -0.0287 -0.0075 -0.0287 -0.0083 -0.0287 -0.0092 -0.0287 -0.0101 -0.0288 -0.011 -0.0287 -0.0119 -0.0287 -0.0128 -0.0287 -0.0136 -0.0287 0 0 1.0504 0.4595z"/>
   </g>
   <g>
    <path class="fil0" d="M56.9234 8.6558l-2.7064 -0.0974 0 0 0.0576 -0.0465 0.0558 -0.0475 0.0539 -0.0482 0.052 -0.0492 0.0501 -0.0501 0.0483 -0.051 0.0463 -0.0518 0.0445 -0.0528 0.0426 -0.0536 0.0407 -0.0545 0.0388 -0.0554 0.0369 -0.0563 0.0351 -0.0572 0.0331 -0.0581 0.0313 -0.059 0.0294 -0.0598 0.0275 -0.0608 0.0257 -0.0616 0.0237 -0.0625 0.0219 -0.0634 0.0199 -0.0643 0.0181 -0.0652 0.0162 -0.0661 0.0143 -0.067 0.0125 -0.0678 0.0105 -0.0688 0.0087 -0.0696 0.0068 -0.0705 0.0049 -0.0714 0.003 -0.0723 0.0011 -0.0732 -0.0007 -0.0741 1.7959 2.027zm-12.7014 -3.0199l0 -0.3528 0 0 0.3707 0.0034 0.3712 0.0079 0.3711 0.0133 0.3702 0.0185 0.3707 0.0238 0.3705 0.0291 0.3694 0.0351 0.3699 0.0395 0.3689 0.0455 0.369 0.0501 0.368 0.0559 0.3682 0.0604 0.3678 0.0662 0.3666 0.0715 0.3666 0.076 0.3654 0.0818 0.3647 0.0869 0.3649 0.0921 0.3634 0.0972 0.3633 0.1023 0.362 0.1074 0.3612 0.1125 0.3609 0.1174 0.3595 0.1226 0.3585 0.1277 0.3576 0.1327 0.3567 0.1378 0.3557 0.1434 0.3553 0.1478 0.3536 0.1528 0.3523 0.1584 0.3514 0.1627 -0.1502 0.3184 -0.3472 -0.1613 -0.3483 -0.1558 -0.3494 -0.1514 -0.3499 -0.1464 -0.3515 -0.1406 -0.3525 -0.1364 -0.3534 -0.1313 -0.3545 -0.1263 -0.3553 -0.1212 -0.3555 -0.1162 -0.357 -0.1111 -0.3578 -0.106 -0.3579 -0.1009 -0.3592 -0.0958 -0.3593 -0.0907 -0.3607 -0.0855 -0.3612 -0.0804 -0.3612 -0.076 -0.3624 -0.0701 -0.3622 -0.065 -0.3628 -0.0604 -0.3638 -0.0545 -0.3636 -0.0501 -0.3647 -0.0441 -0.3643 -0.0395 -0.3654 -0.0337 -0.3649 -0.0291 -0.3651 -0.0238 -0.3662 -0.0185 -0.3655 -0.0133 -0.3658 -0.0079 -0.3665 -0.002 0 0zm-35.4931 49.0526l-0.3528 0 0 0 0.0471 -2.5391 0.1378 -2.5059 0.2276 -2.4703 0.3144 -2.4301 0.3997 -2.3878 0.4821 -2.3428 0.5623 -2.2934 0.6409 -2.2424 0.7164 -2.1868 0.7899 -2.1288 0.8618 -2.0684 0.9313 -2.0036 0.9974 -1.9364 1.0631 -1.8667 1.1254 -1.7925 1.1853 -1.7167 1.2437 -1.6364 1.2998 -1.5536 1.3537 -1.4685 1.4047 -1.3789 1.4542 -1.2868 1.5013 -1.191 1.5462 -1.0935 1.5882 -0.9915 1.6295 -0.8864 1.6675 -0.7789 1.7028 -0.6677 1.7367 -0.5532 1.768 -0.4359 1.7966 -0.3151 1.8236 -0.1915 1.8469 -0.0648 0 0.3528 -1.8235 0.0634 -1.7988 0.1887 -1.7732 0.3111 -1.7446 0.4303 -1.7145 0.5464 -1.6822 0.6593 -1.6469 0.7693 -1.6101 0.8768 -1.5716 0.9805 -1.5298 1.0811 -1.4861 1.18 -1.4404 1.2744 -1.3923 1.3665 -1.3413 1.4547 -1.2888 1.5412 -1.2341 1.624 -1.1769 1.7029 -1.1172 1.7801 -1.0549 1.8529 -0.9918 1.924 -0.9245 1.9912 -0.8562 2.0546 -0.7857 2.1164 -0.7124 2.1744 -0.6367 2.2286 -0.5595 2.281 -0.4793 2.329 -0.3971 2.3754 -0.313 2.4177 -0.2262 2.4565 -0.1378 2.4935 -0.0457 2.5267 0 0zm5.3248 25.8412l-0.3212 0.1434 -0.3137 -0.7117 -0.306 -0.7195 -0.2967 -0.7271 -0.2881 -0.7354 -0.28 -0.742 -0.2705 -0.7492 -0.2615 -0.7564 -0.2524 -0.7641 -0.2434 -0.7702 -0.2341 -0.777 -0.2248 -0.7842 -0.2154 -0.79 -0.2058 -0.7964 -0.1962 -0.8025 -0.1858 -0.8093 -0.1766 -0.8146 -0.1668 -0.8203 -0.156 -0.8267 -0.1466 -0.8316 -0.1357 -0.8369 -0.1261 -0.8423 -0.115 -0.848 -0.1053 -0.8524 -0.0939 -0.8573 -0.0833 -0.8621 -0.0731 -0.8673 -0.0616 -0.8711 -0.0506 -0.8754 -0.0395 -0.8805 -0.0284 -0.8838 -0.0171 -0.8877 -0.0064 -0.8916 0.3528 0 0.005 0.8874 0.0171 0.8837 0.0284 0.8796 0.0395 0.8749 0.0506 0.8714 0.0616 0.8669 0.0717 0.8619 0.0833 0.8579 0.0939 0.8531 0.1039 0.8482 0.115 0.8426 0.1247 0.8381 0.1357 0.8329 0.1454 0.8274 0.156 0.8211 0.1654 0.8163 0.1752 0.8104 0.1858 0.8037 0.1948 0.7985 0.2044 0.7922 0.214 0.7858 0.2234 0.7788 0.2327 0.7728 0.242 0.7662 0.2512 0.7585 0.2601 0.7522 0.2691 0.7452 0.2772 0.7378 0.2867 0.7298 0.2953 0.7231 0.3032 0.7153 0.3125 0.7075z"/>
   </g>
   <path class="fil1 str2" d="M74.5504 80.6014c3.3839,-7.5273 5.3403,-16.4049 5.3403,-25.9129 0,-27.1835 -15.9731,-49.229 -35.6687,-49.229 -2.8572,0 -5.7053,0.481 -8.4785,1.4123"/>
  </g>
 </g>
</svg>
